<?xml version="1.0" encoding="utf-8"?>
<!-- Generator: Adobe Illustrator 22.0.1, SVG Export Plug-In . SVG Version: 6.00 Build 0)  -->
<svg version="1.1" id="Layer_1" xmlns="http://www.w3.org/2000/svg" xmlns:xlink="http://www.w3.org/1999/xlink" x="0px" y="0px"
	 viewBox="0 0 78.1 90" style="enable-background:new 0 0 78.1 90;" xml:space="preserve">
<style type="text/css">
	.st0{fill:#69BFEB;}
</style>
<title>black-cat</title>
<path class="st0" d="M77.5,52c-0.5-2.5-2.9-4.1-5.4-3.6s-4.1,2.9-3.6,5.4c1.5,7.6-0.5,12.9-5.9,15.4c-1.2,0.5-2.4,0.9-3.7,1.1
	C59,69,59,67.8,59,66.4c-0.2-12.2-14.8-18.2-19.2-27.1c3.1-2.4,4.8-6.1,4.5-10C44,25.2,42.6,21.2,40,18c1.3-6.2,2.3-15.5-1.1-17.6
	c-3.6-2.2-9.8,5.2-12.8,9.7c-1.6-0.2-3.3-0.3-4.9-0.3c-1.6,0.1-3.3,0.3-4.8,0.7C13.1,6.3,6.3-0.7,2.9,1.8
	c-3.2,2.4-1.5,11.8,0.4,17.9C1,23.2-0.1,27.3,0.1,31.4c0.4,8.7,8.7,12.9,19.3,13.2C15.2,51.9,5,56.8,5,68.3
	c0,15.8,12.6,23.2,30.8,21.4c11.3-1.1,17.6-4.3,20.6-10c3.4,0,6.8-0.8,9.9-2.2C75.7,73.3,79.8,63.7,77.5,52z M10.4,28.2
	c-3.5,0.1-6.4-1.8-6.5-4.3s2.7-4.7,6.1-4.8h0.3c-0.7,0.8-1,1.9-0.9,3c0.1,1.7,0.8,3,1.5,3s1.3-1.4,1.2-3.1c0-1-0.3-2.1-1-2.8
	c3,0.3,5.3,2,5.3,4.3C16.7,25.9,13.9,28.1,10.4,28.2z M22.1,33.6c-0.7,0-1.2-0.2-1.2-0.5s0.5-0.5,1.2-0.5s1.2,0.2,1.2,0.5
	S22.8,33.6,22.1,33.6z M24.6,29.2L22.9,31c-0.2,0.2-0.5,0.3-0.8,0.3s-0.6-0.1-0.8-0.3l-1.8-1.7c-0.3-0.3-0.4-0.8-0.3-1.2
	c0.1-0.4,0.5-0.7,0.9-0.7l3.5-0.2c0.4,0,0.8,0.2,1,0.6C25,28.4,24.9,28.9,24.6,29.2z M33.7,27.2c-3.5,0.2-6.4-1.7-6.6-4.2
	c-0.1-2.2,2-4.2,4.9-4.8c-0.6,0.8-0.9,1.9-0.8,2.9c0.1,1.7,0.8,3,1.5,3S34,22.7,34,21c0.1-1.1-0.3-2.2-1.1-2.9c0.1,0,0.2,0,0.3,0
	c3.5-0.2,6.4,1.7,6.6,4.2S37.1,27,33.7,27.2z"/>
</svg>
